<?xml version="1.0" encoding="UTF-8"?>
<svg id="OBJECTS" xmlns="http://www.w3.org/2000/svg" xmlns:xlink="http://www.w3.org/1999/xlink" viewBox="0 0 500 500">
  <defs>
    <style>
      .cls-1 {
        stroke: url(#Degradado_sin_nombre_2-2);
      }

      .cls-1, .cls-2, .cls-3 {
        fill: none;
      }

      .cls-1, .cls-3 {
        stroke-miterlimit: 10;
      }

      .cls-4 {
        fill: url(#Degradado_sin_nombre_3);
      }

      .cls-4, .cls-2, .cls-5 {
        stroke-width: 0px;
      }

      .cls-6 {
        clip-path: url(#clippath-1);
      }

      .cls-3 {
        stroke: url(#Degradado_sin_nombre_2);
      }

      .cls-7 {
        clip-path: url(#clippath);
      }

      .cls-5 {
        fill: #fff;
      }
    </style>
    <linearGradient id="Degradado_sin_nombre_3" data-name="Degradado sin nombre 3" x1="-125.17" y1="-344.51" x2="745.6" y2="1035.33" gradientUnits="userSpaceOnUse">
      <stop offset="0" stop-color="#1d4ed8"/>
      <stop offset="1" stop-color="#1d4ed8"/>
    </linearGradient>
    <clipPath id="clippath">
      <path class="cls-2" d="M265.49,299.38h-87.72l-82.82-90.16,82.82-90.16h87.72l-83.23,90.16,83.23,90.16Z"/>
    </clipPath>
    <linearGradient id="Degradado_sin_nombre_2" data-name="Degradado sin nombre 2" x1="135.72" y1="201.3" x2="240.33" y2="201.3" gradientUnits="userSpaceOnUse">
      <stop offset="0" stop-color="#1d4ed8"/>
      <stop offset="1" stop-color="#1d4ed8"/>
    </linearGradient>
    <clipPath id="clippath-1">
      <path class="cls-2" d="M247.27,203.26h87.72l82.82,90.16-82.82,90.16h-87.72l83.23-90.16-83.23-90.16Z"/>
    </clipPath>
    <linearGradient id="Degradado_sin_nombre_2-2" data-name="Degradado sin nombre 2" x1="272.44" y1="301.34" x2="377.04" y2="301.34" xlink:href="#Degradado_sin_nombre_2"/>
  </defs>
  <rect class="cls-4" width="500" height="500" rx="11.47" ry="11.47"/>
  <path class="cls-5" d="M265.49,299.38h-87.72l-82.82-90.16,82.82-90.16h87.72l-83.23,90.16,83.23,90.16Z"/>
  <path class="cls-5" d="M246.47,204.59h87.72l82.82,90.16-82.82,90.16h-87.72l83.23-90.16-83.23-90.16Z"/>
  <g class="cls-7">
    <polyline class="cls-3" points="239.95 86.86 136.38 209.22 228.15 315.75"/>
  </g>
  <g class="cls-6">
    <polyline class="cls-1" points="272.82 415.78 376.39 293.42 284.62 186.9"/>
  </g>
</svg>